<svg width="36" height="36" viewBox="0 0 36 36" fill="none" xmlns="http://www.w3.org/2000/svg">
<path fill-rule="evenodd" clip-rule="evenodd" d="M18 36C27.9409 36 36 27.9409 36 18C36 8.05908 27.9409 0 18 0C8.05908 0 0 8.05908 0 18C0 27.9409 8.05908 36 18 36ZM25.9248 25.9248C25.3389 26.5107 24.3892 26.5107 23.8037 25.9248L18.5005 20.6216L13.1968 25.9248C12.6113 26.5107 11.6616 26.5107 11.0757 25.9248C10.4897 25.3389 10.4897 24.3892 11.0757 23.8037L16.3789 18.5005L11.0757 13.1968C10.4897 12.6113 10.4897 11.6611 11.0757 11.0757C11.6611 10.4897 12.6113 10.4897 13.1968 11.0757L18.5005 16.3789L23.8037 11.0757C24.3892 10.4897 25.3389 10.4897 25.9248 11.0757C26.5107 11.6616 26.5107 12.6113 25.9248 13.1968L20.6216 18.5005L25.9248 23.8037C26.5107 24.3892 26.5107 25.3389 25.9248 25.9248Z" fill="white"/>
</svg>
